<svg version="1.1" baseProfile="full" xmlns="http://www.w3.org/2000/svg"
width="570.5" height="1024"
viewBox="-9.024 -31.4 18.05 32.4"
>
<rect x="-9.024" y="-31.4" width="100%" height="100%" fill="white" />
<path stroke="green" stroke-width="0.04" stroke-linecap="round" fill="none"
transform="scale(1 -1)"
d="	M 0 0
	L 0 1
	L 0 2
	L 0 3
	L 0 4
	L 0 5
	L 0 6
	L 0 7
	L 0 8
	L -0.342 8.94
	L -0.684 9.879
	L -1.026 10.82
	L -1.368 11.76
	L -2.011 12.52
	L -2.654 13.29
	L -3.52 13.79
	L -4.504 13.96
	M -3.52 13.79
	L -4.386 14.29
	L -5.028 15.06
	M -4.386 14.29
	L -5.371 14.46
	M -2.654 13.29
	L -3.296 14.06
	L -3.939 14.82
	L -4.281 15.76
	L -4.924 16.53
	M -4.281 15.76
	L -4.623 16.7
	L -4.623 17.7
	M -4.623 16.7
	L -5.266 17.47
	M -3.939 14.82
	L -4.805 15.32
	L -5.79 15.5
	M -4.805 15.32
	L -5.671 15.82
	L -6.314 16.59
	M -5.671 15.82
	L -6.656 16
	M -1.368 11.76
	L -1.71 12.7
	L -2.052 13.64
	L -2.394 14.58
	L -2.736 15.52
	L -2.736 16.52
	L -2.736 17.52
	L -3.078 18.46
	L -3.721 19.22
	M -3.078 18.46
	L -3.42 19.4
	L -3.42 20.4
	M -3.42 19.4
	L -4.063 20.16
	M -2.736 17.52
	L -2.736 18.52
	L -2.736 19.52
	L -2.394 20.46
	L -2.394 21.46
	M -2.394 20.46
	L -2.052 21.4
	L -1.409 22.16
	M -2.052 21.4
	L -2.052 22.4
	M -2.736 19.52
	L -3.078 20.46
	L -3.721 21.22
	M -3.078 20.46
	L -3.42 21.4
	L -3.42 22.4
	M -3.42 21.4
	L -4.063 22.16
	M -2.736 15.52
	L -3.379 16.28
	L -4.022 17.05
	L -4.888 17.55
	L -5.873 17.72
	M -4.888 17.55
	L -5.754 18.05
	L -6.397 18.82
	M -5.754 18.05
	L -6.739 18.22
	M -4.022 17.05
	L -4.665 17.82
	L -5.307 18.58
	L -5.649 19.52
	L -6.292 20.29
	M -5.649 19.52
	L -5.991 20.46
	L -5.991 21.46
	M -5.991 20.46
	L -6.634 21.23
	M -5.307 18.58
	L -6.173 19.08
	L -7.158 19.26
	M -6.173 19.08
	L -7.039 19.58
	L -7.682 20.35
	M -7.039 19.58
	L -8.024 19.76
	M 0 8
	L 0 9
	L 0 10
	L 0 11
	L 0 12
	L 0 13
	L 0 14
	L 0 15
	L 0 16
	L 0.342 16.94
	L 0.684 17.88
	L 1.026 18.82
	L 1.368 19.76
	L 1.368 20.76
	L 1.368 21.76
	L 1.026 22.7
	L 0.3833 23.46
	M 1.026 22.7
	L 0.684 23.64
	L 0.684 24.64
	M 0.684 23.64
	L 0.04125 24.4
	M 1.368 21.76
	L 1.368 22.76
	L 1.368 23.76
	L 1.71 24.7
	L 1.71 25.7
	M 1.71 24.7
	L 2.052 25.64
	L 2.695 26.4
	M 2.052 25.64
	L 2.052 26.64
	M 1.368 23.76
	L 1.026 24.7
	L 0.3833 25.46
	M 1.026 24.7
	L 0.684 25.64
	L 0.684 26.64
	M 0.684 25.64
	L 0.04125 26.4
	M 1.368 19.76
	L 1.71 20.7
	L 2.052 21.64
	L 2.394 22.58
	L 2.736 23.52
	L 3.379 24.28
	L 4.022 25.05
	L 4.364 25.99
	L 4.364 26.99
	M 4.364 25.99
	L 4.706 26.93
	L 5.349 27.7
	M 4.706 26.93
	L 4.706 27.93
	M 4.022 25.05
	L 4.665 25.82
	L 5.307 26.58
	L 6.173 27.08
	L 6.816 27.85
	M 6.173 27.08
	L 7.039 27.58
	L 8.024 27.76
	M 7.039 27.58
	L 7.682 28.35
	M 5.307 26.58
	L 5.649 27.52
	L 5.649 28.52
	M 5.649 27.52
	L 5.991 28.46
	L 6.634 29.23
	M 5.991 28.46
	L 5.991 29.46
	M 2.736 23.52
	L 2.736 24.52
	L 2.736 25.52
	L 2.394 26.46
	L 1.751 27.22
	M 2.394 26.46
	L 2.052 27.4
	L 2.052 28.4
	M 2.052 27.4
	L 1.409 28.16
	M 2.736 25.52
	L 2.736 26.52
	L 2.736 27.52
	L 3.078 28.46
	L 3.078 29.46
	M 3.078 28.46
	L 3.42 29.4
	L 4.063 30.16
	M 3.42 29.4
	L 3.42 30.4
	M 2.736 27.52
	L 2.394 28.46
	L 1.751 29.22
	M 2.394 28.46
	L 2.052 29.4
	L 2.052 30.4
	M 2.052 29.4
	L 1.409 30.16
	M 0 16
	L -0.342 16.94
	L -0.684 17.88
	L -1.026 18.82
	L -1.368 19.76
	L -2.011 20.52
	L -2.654 21.29
	L -3.52 21.79
	L -4.504 21.96
	M -3.52 21.79
	L -4.386 22.29
	L -5.028 23.06
	M -4.386 22.29
	L -5.371 22.46
	M -2.654 21.29
	L -3.296 22.06
	L -3.939 22.82
	L -4.281 23.76
	L -4.924 24.53
	M -4.281 23.76
	L -4.623 24.7
	L -4.623 25.7
	M -4.623 24.7
	L -5.266 25.47
	M -3.939 22.82
	L -4.805 23.32
	L -5.79 23.5
	M -4.805 23.32
	L -5.671 23.82
	L -6.314 24.59
	M -5.671 23.82
	L -6.656 24
	M -1.368 19.76
	L -1.71 20.7
	L -2.052 21.64
	L -2.394 22.58
	L -2.736 23.52
	L -2.736 24.52
	L -2.736 25.52
	L -3.078 26.46
	L -3.721 27.22
	M -3.078 26.46
	L -3.42 27.4
	L -3.42 28.4
	M -3.42 27.4
	L -4.063 28.16
	M -2.736 25.52
	L -2.736 26.52
	L -2.736 27.52
	L -2.394 28.46
	L -2.394 29.46
	M -2.394 28.46
	L -2.052 29.4
	L -1.409 30.16
	M -2.052 29.4
	L -2.052 30.4
	M -2.736 27.52
	L -3.078 28.46
	L -3.721 29.22
	M -3.078 28.46
	L -3.42 29.4
	L -3.42 30.4
	M -3.42 29.4
	L -4.063 30.16
	M -2.736 23.52
	L -3.379 24.28
	L -4.022 25.05
	L -4.888 25.55
	L -5.873 25.72
	M -4.888 25.55
	L -5.754 26.05
	L -6.397 26.82
	M -5.754 26.05
	L -6.739 26.22
	M -4.022 25.05
	L -4.665 25.82
	L -5.307 26.58
	L -5.649 27.52
	L -6.292 28.29
	M -5.649 27.52
	L -5.991 28.46
	L -5.991 29.46
	M -5.991 28.46
	L -6.634 29.23
	M -5.307 26.58
	L -6.173 27.08
	L -7.158 27.26
	M -6.173 27.08
	L -7.039 27.58
	L -7.682 28.35
	M -7.039 27.58
	L -8.024 27.76
"/>
</svg>
